# xmcd
#
# Track frame offsets: 
#        150
#        24735
#        48795
#        66520
#        85018
#        107806
#        127121
#        156426
#        181276
#        187876
#        221673
#        241788
#
# Disc length: 3427 seconds
#
# Revision: 0
# Processed by: cddbd v1.5.2PL0 Copyright (c) Steve Scherf et al.
# Submitted via: ExactAudioCopy v0.99pb3
#
DISCID=a40d610c
DTITLE=Bili Sims - Bill Sims
DYEAR=1999
DGENRE=Blues
TTITLE0=Time Out
TTITLE1=I Want To See You Again
TTITLE2=Smoke City (featuring Chico Freeman)
TTITLE3=Dark Moon Risin'
TTITLE4=As The Years Go Passin' By
TTITLE5=When Do I Get To Be Called A Men
TTITLE6=Just Like You
TTITLE7=Black Mare
TTITLE8=Blues For Breakfast
TTITLE9=Mr. Airplane Man
TTITLE10=Man Eater
TTITLE11=Nobody's Fault But Mine
EXTD=
EXTT0=
EXTT1=
EXTT2=
EXTT3=
EXTT4=
EXTT5=
EXTT6=
EXTT7=
EXTT8=
EXTT9=
EXTT10=
EXTT11=
PLAYORDER=
